<svg xmlns="http://www.w3.org/2000/svg" viewBox="0 0 667.8 667.8"><defs><style>.cls-1{fill:#8979f2;stroke:#8979f2;}.cls-1,.cls-3,.cls-4{stroke-miterlimit:10;stroke-width:23px;}.cls-2,.cls-3{fill:#0d0d0d;}.cls-3{stroke:#0d0d0d;}.cls-4{fill:#35f29a;stroke:#35f29a;}</style></defs><g id="Layer_2" data-name="Layer 2"><g id="Layer_1-2" data-name="Layer 1"><circle class="cls-1" cx="333.9" cy="333.9" r="322.4"/><polyline class="cls-2" points="293.45 534.97 322.58 515.42 291.43 482.65 274.04 491.15 266.35 523.57"/><path class="cls-2" d="M228.94,153.7c.2-.3,29.73-19.62,29.73-19.62l2,7.28L227.32,165"/><polyline class="cls-2" points="415.61 205.98 444.94 186.77 427.95 173.82 399.63 173.82"/><polyline class="cls-2" points="204.06 385.58 233.99 366.16 264.33 388"/><polygon class="cls-2" points="448.51 534.97 478.71 515.01 441.23 479.69 398.89 517.17 448.51 534.97"/><path class="cls-3" d="M419.41,502.6q-19.25-36.35-38.64-72.06,24.89-11.78,36.58-30.79c.6-1,1.16-2,1.72-3h0q8.89-17.68,8.9-42.9,0-39.92-27.74-61.78t-77-21.86H288.05a31.3,31.3,0,0,1-15-8.59q-9.69-10.2-9.7-28.14t9.6-28q9.6-10,28.6-10l102.79-.73q-.1-25.68-.2-51.36l-95.09.7c-12.59-.34-52.57,0-82,25.58a82.81,82.81,0,0,0-18.52,21.95c-11.22,19.54-11.62,39.79-11.69,46.83v1.08q0,26.25,12,44.7a69.13,69.13,0,0,0,9.71,11.8,139.16,139.16,0,0,0,10.92,10.47c14.41,12,50.06,14.93,51.65,15.05h42.18q18.81,0,28.5,10.21t9.7,28.14q0,17.93-9.6,27.95-6.36,6.63-16.85,8.86H215.46v62l.33,64.52,66.36.42v-76.4h29.06a11.35,11.35,0,0,1,10.18,6.31l40,70.79,69.09-.85Q424.95,513.06,419.41,502.6Z"/><path class="cls-4" d="M448.9,482.89q-19.25-36.36-38.64-72.06Q435.16,399,446.84,380c.6-1,1.17-2,1.72-3h.05q8.89-17.69,8.9-42.89,0-39.93-27.75-61.79T352.81,250.5H317.54a31.35,31.35,0,0,1-15-8.59q-9.69-10.2-9.69-28.14t9.6-28q9.58-10,28.59-10l102.8-.73-.21-51.36-95.08.7c-12.59-.34-52.57,0-82,25.58A83,83,0,0,0,238,172c-11.22,19.55-11.62,39.79-11.68,46.83,0,.48,0,.84,0,1.08q0,26.25,12,44.7a68.67,68.67,0,0,0,9.71,11.8A139.16,139.16,0,0,0,259,286.83c14.41,12,50,14.93,51.64,15.05h42.19q18.81,0,28.5,10.21T391,340.23q0,17.94-9.59,27.95-6.36,6.63-16.85,8.86H245v62l.33,64.52,66.37.42V427.56h29.06a11.37,11.37,0,0,1,10.18,6.3l40,70.79,69.08-.85Q454.44,493.35,448.9,482.89Z"/></g></g></svg>