<svg xmlns="http://www.w3.org/2000/svg" viewBox="0 0 264 404.1"><defs><style>.cls-1{stroke:#000;stroke-miterlimit:10;stroke-width:23px;}</style></defs><g id="Layer_2" data-name="Layer 2"><g id="Layer_1-2" data-name="Layer 1"><path class="cls-1" d="M234.06,370.75q-19.25-36.35-38.64-72.06Q220.31,286.91,232,267.9c.6-1,1.16-2,1.72-3h0q8.9-17.69,8.9-42.9,0-39.91-27.74-61.78t-77-21.86H102.7a31.3,31.3,0,0,1-15-8.59Q78,119.58,78,101.64T87.6,73.69q9.6-10,28.6-10L219,63q-.11-25.68-.2-51.36l-95.09.7c-12.59-.34-52.56,0-82,25.57a83.07,83.07,0,0,0-18.52,22C12,79.36,11.57,99.61,11.5,106.64v1.08q0,26.27,12,44.71a69.61,69.61,0,0,0,9.71,11.8A139.16,139.16,0,0,0,44.13,174.7c14.41,12,50.06,14.93,51.65,15.05H138q18.81,0,28.5,10.21t9.7,28.14q0,17.93-9.6,28-6.36,6.63-16.85,8.86H30.11v62l.33,64.51,66.36.43v-76.4h29.06a11.36,11.36,0,0,1,10.18,6.3l40,70.8,69.09-.86Q239.6,381.22,234.06,370.75Z"/></g></g></svg>