<svg xmlns="http://www.w3.org/2000/svg" viewBox="0 0 293.5 423.82"><defs><style>.cls-1,.cls-2{fill:#0d0d0d;}.cls-2{stroke:#0d0d0d;}.cls-2,.cls-3{stroke-miterlimit:10;stroke-width:23px;}.cls-3{fill:#35f29a;stroke:#35f29a;}</style></defs><g id="Layer_2" data-name="Layer 2"><g id="Layer_1-2" data-name="Layer 1"><polyline class="cls-1" points="108.1 422.84 137.23 403.29 106.08 370.52 88.69 379.01 81 411.44"/><path class="cls-1" d="M43.59,41.57C43.79,41.26,73.32,22,73.32,22l2,7.28L42,52.89"/><polyline class="cls-1" points="230.26 93.85 259.59 74.63 242.6 61.69 214.28 61.69"/><polyline class="cls-1" points="18.71 273.44 48.64 254.03 78.98 275.87"/><polygon class="cls-1" points="263.16 422.84 293.36 402.88 255.88 367.56 213.54 405.04 263.16 422.84"/><path class="cls-2" d="M234.06,390.47q-19.25-36.35-38.64-72.06,24.89-11.79,36.58-30.8c.6-1,1.16-2,1.72-3h0q8.9-17.69,8.9-42.9,0-39.91-27.74-61.79t-77-21.86H102.7a31.29,31.29,0,0,1-15-8.58Q78,139.29,78,121.36T87.6,93.41q9.6-10,28.6-10L219,82.67q-.11-25.68-.2-51.37L123.7,32c-12.59-.34-52.56,0-82,25.57a83,83,0,0,0-18.52,22C12,99.08,11.57,119.33,11.5,126.36v1.08q0,26.26,12,44.71A69.61,69.61,0,0,0,33.21,184a139.16,139.16,0,0,0,10.92,10.47c14.41,12,50.06,14.92,51.65,15.05H138q18.81,0,28.5,10.2t9.7,28.14q0,17.94-9.6,27.95-6.36,6.64-16.85,8.87H30.11v62l.33,64.51,66.36.43v-76.4h29.06a11.36,11.36,0,0,1,10.18,6.3l40,70.79,69.09-.85Q239.6,400.94,234.06,390.47Z"/><path class="cls-3" d="M263.55,370.75q-19.25-36.35-38.63-72.06,24.89-11.78,36.57-30.79c.6-1,1.17-2,1.72-3h.05q8.89-17.69,8.9-42.9,0-39.91-27.75-61.78t-76.95-21.86H132.19a31.35,31.35,0,0,1-15-8.59q-9.69-10.2-9.69-28.14t9.6-27.95q9.59-10,28.59-10L248.49,63l-.21-51.36-95.08.7c-12.59-.34-52.57,0-82,25.57a83.06,83.06,0,0,0-18.53,22C41.46,79.36,41.06,99.61,41,106.64v1.08Q41,134,53,152.43a68.67,68.67,0,0,0,9.71,11.8A139.16,139.16,0,0,0,73.63,174.7c14.41,12,50.05,14.93,51.65,15.05h42.18q18.81,0,28.5,10.21t9.69,28.14q0,17.93-9.59,28-6.36,6.63-16.85,8.86H59.6v62l.33,64.51,66.37.43v-76.4h29.06a11.37,11.37,0,0,1,10.18,6.3l40,70.8,69.08-.86Q269.09,381.22,263.55,370.75Z"/></g></g></svg>